<mxfile host="app.diagrams.net" modified="2023-07-17T02:12:48.126Z" agent="Mozilla/5.0 (Macintosh; Intel Mac OS X 10_15_7) AppleWebKit/537.36 (KHTML, like Gecko) Chrome/114.0.0.0 Safari/537.36" etag="vHqko7-pTM82vy3iiTjZ" version="21.6.2" type="device">
  <diagram name="第 1 页" id="bhc3LnNi0rVLm7wZ1ieQ">
    <mxGraphModel dx="5751" dy="3215" grid="1" gridSize="10" guides="1" tooltips="1" connect="1" arrows="1" fold="1" page="1" pageScale="1" pageWidth="827" pageHeight="1169" math="0" shadow="0">
      <root>
        <mxCell id="0" />
        <mxCell id="1" parent="0" />
        <mxCell id="Pgr-iC8UX_FUbl4EFKn4-109" value="" style="group" parent="1" vertex="1" connectable="0">
          <mxGeometry x="-1030" y="-1140" width="3200" height="1420" as="geometry" />
        </mxCell>
        <mxCell id="Pgr-iC8UX_FUbl4EFKn4-2" value="&lt;font style=&quot;font-size: 24px;&quot;&gt;RouterChain 原理解读&lt;/font&gt;" style="text;html=1;strokeColor=none;fillColor=none;align=center;verticalAlign=middle;whiteSpace=wrap;rounded=0;fontSize=16;fontFamily=Times New Roman;" parent="Pgr-iC8UX_FUbl4EFKn4-109" vertex="1">
          <mxGeometry x="1460" width="250" height="80" as="geometry" />
        </mxCell>
        <mxCell id="Pgr-iC8UX_FUbl4EFKn4-41" value="MULTI_PROMPT_ROUTER_TEMPLATE = &quot;&quot;&quot;\&#xa;Given a raw text input to a language model select the model prompt best suited for \&#xa;the input. You will be given the names of the available prompts and a description of \&#xa;what the prompt is best suited for. You may also revise the original input if you \&#xa;think that revising it will ultimately lead to a better response from the language \&#xa;model.&#xa;&#xa;&lt;&lt; FORMATTING &gt;&gt;&#xa;Return a markdown code snippet with a JSON object formatted to look like:&#xa;```json&#xa;{{{{&#xa;&quot;destination&quot;: string \\ name of the prompt to use or &quot;DEFAULT&quot;&#xa;&quot;next_inputs&quot;: string \\ a potentially modified version of the original input&#xa;}}}}&#xa;```&#xa;&#xa;REMEMBER: &quot;destination&quot; MUST be one of the candidate prompt names specified below OR \&#xa;it can be &quot;DEFAULT&quot; if the input is not well suited for any of the candidate prompts.&#xa;REMEMBER: &quot;next_inputs&quot; can just be the original input if you don&#39;t think any \&#xa;modifications are needed.&#xa;&#xa;&lt;&lt; CANDIDATE PROMPTS &gt;&gt;&#xa;{destinations}&#xa;&#xa;&lt;&lt; INPUT &gt;&gt;&#xa;{{input}}&#xa;&#xa;&lt;&lt; OUTPUT &gt;&gt;&#xa;&quot;&quot;&quot;&#xa;" style="rounded=1;whiteSpace=wrap;hachureGap=4;fontFamily=Times New Roman;fontSize=16;align=left;fontColor=#e71313;spacingLeft=17;spacingTop=10;spacingBottom=-10;" parent="Pgr-iC8UX_FUbl4EFKn4-109" vertex="1">
          <mxGeometry x="20" y="770" width="750" height="650" as="geometry" />
        </mxCell>
        <mxCell id="Pgr-iC8UX_FUbl4EFKn4-42" value="router_template" style="text;html=1;strokeColor=none;fillColor=none;align=center;verticalAlign=middle;whiteSpace=wrap;rounded=0;fontSize=16;fontFamily=Times New Roman;" parent="Pgr-iC8UX_FUbl4EFKn4-109" vertex="1">
          <mxGeometry x="330" y="770" width="60" height="30" as="geometry" />
        </mxCell>
        <mxCell id="Pgr-iC8UX_FUbl4EFKn4-44" value="&lt;div style=&quot;font-size: 16px;&quot;&gt;&lt;span style=&quot;background-color: initial; font-size: 16px;&quot;&gt;physics : Good for answering questions about physics&lt;/span&gt;&lt;/div&gt;&lt;font style=&quot;font-size: 16px;&quot;&gt;&lt;div style=&quot;font-size: 16px;&quot;&gt;math : Good for answering math questions&lt;/div&gt;&lt;div style=&quot;font-size: 16px;&quot;&gt;joke : Good for console every one when the question express sad or tired&lt;/div&gt;&lt;div style=&quot;font-size: 16px;&quot;&gt;algorithm : Good for researching various algorithms when the question involves knowledge of algorithms&lt;/div&gt;&lt;br style=&quot;font-size: 16px;&quot;&gt;&lt;/font&gt;" style="rounded=1;whiteSpace=wrap;html=1;hachureGap=4;fontFamily=Times New Roman;fontSize=16;align=left;" parent="Pgr-iC8UX_FUbl4EFKn4-109" vertex="1">
          <mxGeometry x="10" y="620" width="760" height="120" as="geometry" />
        </mxCell>
        <mxCell id="Pgr-iC8UX_FUbl4EFKn4-45" value="" style="shape=curlyBracket;whiteSpace=wrap;html=1;rounded=1;flipH=1;labelPosition=right;verticalLabelPosition=middle;align=left;verticalAlign=middle;hachureGap=4;strokeColor=default;fontFamily=Times New Roman;fontSize=16;fontColor=default;fillColor=default;" parent="Pgr-iC8UX_FUbl4EFKn4-109" vertex="1">
          <mxGeometry x="770" y="680" width="320" height="510" as="geometry" />
        </mxCell>
        <mxCell id="Pgr-iC8UX_FUbl4EFKn4-47" value="MULTI_PROMPT_ROUTER_TEMPLATE = &quot;&quot;&quot;\&#xa;Given a raw text input to a language model select the model prompt best suited for \&#xa;the input. You will be given the names of the available prompts and a description of \&#xa;what the prompt is best suited for. You may also revise the original input if you \&#xa;think that revising it will ultimately lead to a better response from the language \&#xa;model.&#xa;&#xa;&lt;&lt; FORMATTING &gt;&gt;&#xa;Return a markdown code snippet with a JSON object formatted to look like:&#xa;```json&#xa;{{{{&#xa;&quot;destination&quot;: string \\ name of the prompt to use or &quot;DEFAULT&quot;&#xa;&quot;next_inputs&quot;: string \\ a potentially modified version of the original input&#xa;}}}}&#xa;```&#xa;&#xa;REMEMBER: &quot;destination&quot; MUST be one of the candidate prompt names specified below OR \&#xa;it can be &quot;DEFAULT&quot; if the input is not well suited for any of the candidate prompts.&#xa;REMEMBER: &quot;next_inputs&quot; can just be the original input if you don&#39;t think any \&#xa;modifications are needed.&#xa;&#xa;&lt;&lt; CANDIDATE PROMPTS &gt;&gt;&#xa;physics:Good for answering questions about physics&#xa;math:Good for answering math questions&#xa;joke:Good for console every one when the question express sad or tired&#xa;algorithm:Good for researching various algorithms when the question involves knowledge of algorithms&#xa;&lt;&lt; INPUT &gt;&gt;&#xa;{{input}}&#xa;&#xa;&lt;&lt; OUTPUT &gt;&gt;&#xa;&quot;&quot;&quot;&#xa;" style="rounded=1;whiteSpace=wrap;hachureGap=4;fontFamily=Times New Roman;fontSize=16;align=left;fontColor=default;spacingLeft=17;spacingTop=10;spacingBottom=-10;" parent="Pgr-iC8UX_FUbl4EFKn4-109" vertex="1">
          <mxGeometry x="1050" y="610" width="790" height="730" as="geometry" />
        </mxCell>
        <mxCell id="Pgr-iC8UX_FUbl4EFKn4-48" value="router_prompt" style="text;html=1;strokeColor=none;fillColor=none;align=center;verticalAlign=middle;whiteSpace=wrap;rounded=0;fontSize=16;fontFamily=Times New Roman;" parent="Pgr-iC8UX_FUbl4EFKn4-109" vertex="1">
          <mxGeometry x="1440" y="610" width="60" height="30" as="geometry" />
        </mxCell>
        <mxCell id="Pgr-iC8UX_FUbl4EFKn4-50" value="llm = ChatOpenAI()" style="ellipse;whiteSpace=wrap;html=1;aspect=fixed;rounded=1;hachureGap=4;strokeColor=default;fontFamily=Times New Roman;fontSize=16;fontColor=default;fillColor=default;" parent="Pgr-iC8UX_FUbl4EFKn4-109" vertex="1">
          <mxGeometry x="1870" y="640" width="90" height="90" as="geometry" />
        </mxCell>
        <mxCell id="Pgr-iC8UX_FUbl4EFKn4-55" value="" style="group;fontFamily=Times New Roman;fontSize=16;" parent="Pgr-iC8UX_FUbl4EFKn4-109" vertex="1" connectable="0">
          <mxGeometry y="100" width="860" height="430" as="geometry" />
        </mxCell>
        <mxCell id="Pgr-iC8UX_FUbl4EFKn4-7" value="&lt;font style=&quot;font-size: 16px;&quot;&gt;prompt_template&lt;/font&gt;" style="text;html=1;strokeColor=none;fillColor=none;align=center;verticalAlign=middle;whiteSpace=wrap;rounded=0;fontSize=16;fontFamily=Times New Roman;" parent="Pgr-iC8UX_FUbl4EFKn4-55" vertex="1">
          <mxGeometry x="330" width="50" height="40" as="geometry" />
        </mxCell>
        <mxCell id="Pgr-iC8UX_FUbl4EFKn4-12" value="&lt;p style=&quot;line-height: 80%; font-size: 16px;&quot;&gt;&lt;font style=&quot;font-size: 16px;&quot;&gt;algorithm_template=&quot;&quot;&quot;You are a very smart physics professor. \&lt;/font&gt;&lt;/p&gt;&lt;p style=&quot;line-height: 80%; font-size: 16px;&quot;&gt;&lt;font style=&quot;font-size: 16px;&quot;&gt;You are great at answering questions about physics in a concise and easy to understand manner. \&lt;/font&gt;&lt;/p&gt;&lt;p style=&quot;line-height: 80%; font-size: 16px;&quot;&gt;&lt;font style=&quot;font-size: 16px;&quot;&gt;And answer according to the language of the user&#39;s question.&lt;/font&gt;&lt;/p&gt;&lt;p style=&quot;line-height: 80%; font-size: 16px;&quot;&gt;&lt;span style=&quot;font-size: 16px; background-color: initial;&quot;&gt;Here is a question:&lt;br style=&quot;font-size: 16px;&quot;&gt;&lt;/span&gt;&lt;span style=&quot;background-color: initial; font-size: 16px;&quot;&gt;{input}&quot;&quot;&quot;&lt;/span&gt;&lt;/p&gt;" style="rounded=1;whiteSpace=wrap;html=1;hachureGap=4;fontFamily=Times New Roman;fontSize=16;align=left;" parent="Pgr-iC8UX_FUbl4EFKn4-55" vertex="1">
          <mxGeometry y="270" width="770" height="160" as="geometry" />
        </mxCell>
        <mxCell id="Pgr-iC8UX_FUbl4EFKn4-11" value="&lt;p style=&quot;line-height: 80%; font-size: 16px;&quot;&gt;&lt;font style=&quot;font-size: 16px;&quot;&gt;joke_template=&quot;&quot;&quot;You are a very smart physics professor. \&lt;/font&gt;&lt;/p&gt;&lt;p style=&quot;line-height: 80%; font-size: 16px;&quot;&gt;&lt;font style=&quot;font-size: 16px;&quot;&gt;You are great at answering questions about physics in a concise and easy to understand manner. \&lt;/font&gt;&lt;/p&gt;&lt;p style=&quot;line-height: 80%; font-size: 16px;&quot;&gt;&lt;font style=&quot;font-size: 16px;&quot;&gt;And answer according to the language of the user&#39;s question.&lt;/font&gt;&lt;/p&gt;&lt;p style=&quot;line-height: 80%; font-size: 16px;&quot;&gt;&lt;span style=&quot;font-size: 16px; background-color: initial;&quot;&gt;Here is a question:&lt;br style=&quot;font-size: 16px;&quot;&gt;&lt;/span&gt;&lt;span style=&quot;background-color: initial; font-size: 16px;&quot;&gt;{input}&quot;&quot;&quot;&lt;/span&gt;&lt;/p&gt;" style="rounded=1;whiteSpace=wrap;html=1;hachureGap=4;fontFamily=Times New Roman;fontSize=16;align=left;" parent="Pgr-iC8UX_FUbl4EFKn4-55" vertex="1">
          <mxGeometry x="70" y="220" width="740" height="150" as="geometry" />
        </mxCell>
        <mxCell id="Pgr-iC8UX_FUbl4EFKn4-10" value="&lt;p style=&quot;line-height: 80%; font-size: 16px;&quot;&gt;&lt;font style=&quot;font-size: 16px;&quot;&gt;&lt;font style=&quot;font-size: 16px;&quot;&gt;math_template=&quot;&quot;&quot;&lt;/font&gt;You are a very good mathematician. You are great at answering math questions.&lt;span style=&quot;background-color: initial; font-size: 16px;&quot;&gt;&amp;nbsp;\&lt;br style=&quot;font-size: 16px;&quot;&gt;&lt;/span&gt;&lt;/font&gt;&lt;/p&gt;&lt;p style=&quot;line-height: 80%; font-size: 16px;&quot;&gt;&lt;font style=&quot;font-size: 16px;&quot;&gt;&lt;span style=&quot;background-color: initial; font-size: 16px;&quot;&gt;You are so good because you are able to break down hard problems into their component parts, &lt;/span&gt;&lt;/font&gt;&lt;span style=&quot;background-color: initial; font-size: 16px;&quot;&gt;answer the component parts, and then put then together to answer the broader question. \&lt;/span&gt;&lt;/p&gt;&lt;p style=&quot;line-height: 80%; font-size: 16px;&quot;&gt;&lt;font style=&quot;font-size: 16px;&quot;&gt;&lt;span style=&quot;background-color: initial; font-size: 16px;&quot;&gt;And answer according to the language of the user&#39;s question.&lt;/span&gt;&lt;span style=&quot;background-color: initial; font-size: 16px;&quot;&gt;&lt;br style=&quot;font-size: 16px;&quot;&gt;&lt;/span&gt;&lt;/font&gt;&lt;/p&gt;&lt;p style=&quot;line-height: 80%; font-size: 16px;&quot;&gt;&lt;font style=&quot;font-size: 16px;&quot;&gt;&lt;span style=&quot;background-color: initial; font-size: 16px;&quot;&gt;Here is a question:&lt;/span&gt;&lt;/font&gt;&lt;/p&gt;&lt;p style=&quot;line-height: 80%; font-size: 16px;&quot;&gt;&lt;font style=&quot;font-size: 16px;&quot;&gt;&lt;span style=&quot;background-color: initial; font-size: 16px;&quot;&gt;{input}&quot;&quot;&quot;&lt;/span&gt;&lt;/font&gt;&lt;/p&gt;" style="rounded=1;whiteSpace=wrap;html=1;hachureGap=4;fontFamily=Times New Roman;fontSize=16;align=left;" parent="Pgr-iC8UX_FUbl4EFKn4-55" vertex="1">
          <mxGeometry x="110" y="140" width="730" height="190" as="geometry" />
        </mxCell>
        <mxCell id="Pgr-iC8UX_FUbl4EFKn4-3" value="&lt;p style=&quot;line-height: 80%; font-size: 16px;&quot;&gt;&lt;font style=&quot;font-size: 16px;&quot;&gt;physics_template=&quot;&quot;&quot;You are a very smart physics professor. \&lt;/font&gt;&lt;/p&gt;&lt;p style=&quot;line-height: 80%; font-size: 16px;&quot;&gt;&lt;font style=&quot;font-size: 16px;&quot;&gt;You are great at answering questions about physics in a concise and easy to understand manner. \&lt;/font&gt;&lt;/p&gt;&lt;p style=&quot;line-height: 80%; font-size: 16px;&quot;&gt;&lt;font style=&quot;font-size: 16px;&quot;&gt;And answer according to the language of the user&#39;s question.&lt;/font&gt;&lt;/p&gt;&lt;p style=&quot;line-height: 80%; font-size: 16px;&quot;&gt;&lt;font style=&quot;font-size: 16px;&quot;&gt;&lt;span style=&quot;font-size: 16px; background-color: initial;&quot;&gt;Here is a question:&lt;br style=&quot;font-size: 16px;&quot;&gt;&lt;/span&gt;&lt;span style=&quot;background-color: initial; font-size: 16px;&quot;&gt;{input}&quot;&quot;&quot;&lt;/span&gt;&lt;/font&gt;&lt;/p&gt;" style="rounded=1;whiteSpace=wrap;html=1;hachureGap=4;fontFamily=Times New Roman;fontSize=16;align=left;glass=0;" parent="Pgr-iC8UX_FUbl4EFKn4-55" vertex="1">
          <mxGeometry x="150" y="90" width="710" height="150" as="geometry" />
        </mxCell>
        <mxCell id="Pgr-iC8UX_FUbl4EFKn4-56" value="" style="endArrow=classic;html=1;rounded=0;fontFamily=Times New Roman;fontSize=16;fontColor=default;" parent="Pgr-iC8UX_FUbl4EFKn4-109" edge="1">
          <mxGeometry width="50" height="50" relative="1" as="geometry">
            <mxPoint x="860" y="320" as="sourcePoint" />
            <mxPoint x="1300" y="320" as="targetPoint" />
          </mxGeometry>
        </mxCell>
        <mxCell id="Pgr-iC8UX_FUbl4EFKn4-57" value="" style="group;fontFamily=Times New Roman;fontSize=16;" parent="Pgr-iC8UX_FUbl4EFKn4-109" vertex="1" connectable="0">
          <mxGeometry x="1300" y="190" width="150" height="250" as="geometry" />
        </mxCell>
        <mxCell id="Pgr-iC8UX_FUbl4EFKn4-22" value="prompt" style="text;html=1;strokeColor=none;fillColor=none;align=center;verticalAlign=middle;whiteSpace=wrap;rounded=0;fontSize=16;fontFamily=Times New Roman;container=0;" parent="Pgr-iC8UX_FUbl4EFKn4-57" vertex="1">
          <mxGeometry x="45" width="60" height="30" as="geometry" />
        </mxCell>
        <mxCell id="Pgr-iC8UX_FUbl4EFKn4-25" value="&lt;font style=&quot;font-size: 16px;&quot;&gt;algorithm_prompt&lt;/font&gt;" style="ellipse;whiteSpace=wrap;html=1;hachureGap=4;fontFamily=Times New Roman;fontSize=16;container=0;" parent="Pgr-iC8UX_FUbl4EFKn4-57" vertex="1">
          <mxGeometry y="190" width="150" height="60" as="geometry" />
        </mxCell>
        <mxCell id="Pgr-iC8UX_FUbl4EFKn4-24" value="&lt;font style=&quot;font-size: 16px;&quot;&gt;joke_prompt&lt;/font&gt;" style="ellipse;whiteSpace=wrap;html=1;hachureGap=4;fontFamily=Times New Roman;fontSize=16;container=0;" parent="Pgr-iC8UX_FUbl4EFKn4-57" vertex="1">
          <mxGeometry y="150" width="150" height="60" as="geometry" />
        </mxCell>
        <mxCell id="Pgr-iC8UX_FUbl4EFKn4-23" value="&lt;font style=&quot;font-size: 16px;&quot;&gt;math_prompt&lt;/font&gt;" style="ellipse;whiteSpace=wrap;html=1;hachureGap=4;fontFamily=Times New Roman;fontSize=16;container=0;" parent="Pgr-iC8UX_FUbl4EFKn4-57" vertex="1">
          <mxGeometry y="110" width="150" height="60" as="geometry" />
        </mxCell>
        <mxCell id="Pgr-iC8UX_FUbl4EFKn4-17" value="&lt;font style=&quot;font-size: 16px;&quot;&gt;physics_prompt&lt;/font&gt;" style="ellipse;whiteSpace=wrap;html=1;hachureGap=4;fontFamily=Times New Roman;fontSize=16;container=0;" parent="Pgr-iC8UX_FUbl4EFKn4-57" vertex="1">
          <mxGeometry y="70" width="150" height="60" as="geometry" />
        </mxCell>
        <mxCell id="Pgr-iC8UX_FUbl4EFKn4-58" value="" style="endArrow=classic;html=1;rounded=0;fontFamily=Times New Roman;fontSize=16;fontColor=default;exitX=1;exitY=0.5;exitDx=0;exitDy=0;entryX=0;entryY=0.5;entryDx=0;entryDy=0;" parent="Pgr-iC8UX_FUbl4EFKn4-109" source="Pgr-iC8UX_FUbl4EFKn4-17" target="Pgr-iC8UX_FUbl4EFKn4-29" edge="1">
          <mxGeometry width="50" height="50" relative="1" as="geometry">
            <mxPoint x="1520" y="320" as="sourcePoint" />
            <mxPoint x="1570" y="270" as="targetPoint" />
          </mxGeometry>
        </mxCell>
        <mxCell id="Pgr-iC8UX_FUbl4EFKn4-59" value="" style="endArrow=classic;html=1;rounded=0;fontFamily=Times New Roman;fontSize=16;fontColor=default;exitX=1;exitY=0.5;exitDx=0;exitDy=0;entryX=0;entryY=0.5;entryDx=0;entryDy=0;" parent="Pgr-iC8UX_FUbl4EFKn4-109" source="Pgr-iC8UX_FUbl4EFKn4-23" target="Pgr-iC8UX_FUbl4EFKn4-32" edge="1">
          <mxGeometry width="50" height="50" relative="1" as="geometry">
            <mxPoint x="1510" y="360" as="sourcePoint" />
            <mxPoint x="1560" y="310" as="targetPoint" />
          </mxGeometry>
        </mxCell>
        <mxCell id="Pgr-iC8UX_FUbl4EFKn4-60" value="" style="endArrow=classic;html=1;rounded=0;fontFamily=Times New Roman;fontSize=16;fontColor=default;exitX=1;exitY=0.5;exitDx=0;exitDy=0;entryX=0;entryY=0.5;entryDx=0;entryDy=0;" parent="Pgr-iC8UX_FUbl4EFKn4-109" source="Pgr-iC8UX_FUbl4EFKn4-24" target="Pgr-iC8UX_FUbl4EFKn4-33" edge="1">
          <mxGeometry width="50" height="50" relative="1" as="geometry">
            <mxPoint x="1510" y="420" as="sourcePoint" />
            <mxPoint x="1560" y="370" as="targetPoint" />
          </mxGeometry>
        </mxCell>
        <mxCell id="Pgr-iC8UX_FUbl4EFKn4-61" value="" style="endArrow=classic;html=1;rounded=0;fontFamily=Times New Roman;fontSize=16;fontColor=default;exitX=1;exitY=0.5;exitDx=0;exitDy=0;entryX=0;entryY=0.5;entryDx=0;entryDy=0;" parent="Pgr-iC8UX_FUbl4EFKn4-109" source="Pgr-iC8UX_FUbl4EFKn4-25" target="Pgr-iC8UX_FUbl4EFKn4-34" edge="1">
          <mxGeometry width="50" height="50" relative="1" as="geometry">
            <mxPoint x="1480" y="450" as="sourcePoint" />
            <mxPoint x="1530" y="400" as="targetPoint" />
          </mxGeometry>
        </mxCell>
        <mxCell id="Pgr-iC8UX_FUbl4EFKn4-62" value="" style="endArrow=none;dashed=1;html=1;dashPattern=1 3;strokeWidth=2;rounded=0;fontFamily=Times New Roman;fontSize=16;fontColor=default;entryX=0;entryY=0.5;entryDx=0;entryDy=0;exitX=1;exitY=0;exitDx=0;exitDy=0;" parent="Pgr-iC8UX_FUbl4EFKn4-109" source="Pgr-iC8UX_FUbl4EFKn4-50" target="Pgr-iC8UX_FUbl4EFKn4-29" edge="1">
          <mxGeometry width="50" height="50" relative="1" as="geometry">
            <mxPoint x="2010" y="480" as="sourcePoint" />
            <mxPoint x="2060" y="430" as="targetPoint" />
          </mxGeometry>
        </mxCell>
        <mxCell id="Pgr-iC8UX_FUbl4EFKn4-63" value="" style="endArrow=none;dashed=1;html=1;dashPattern=1 3;strokeWidth=2;rounded=0;fontFamily=Times New Roman;fontSize=16;fontColor=default;entryX=-0.05;entryY=0.533;entryDx=0;entryDy=0;entryPerimeter=0;exitX=1;exitY=0;exitDx=0;exitDy=0;" parent="Pgr-iC8UX_FUbl4EFKn4-109" source="Pgr-iC8UX_FUbl4EFKn4-50" target="Pgr-iC8UX_FUbl4EFKn4-32" edge="1">
          <mxGeometry width="50" height="50" relative="1" as="geometry">
            <mxPoint x="2000" y="490" as="sourcePoint" />
            <mxPoint x="2050" y="440" as="targetPoint" />
          </mxGeometry>
        </mxCell>
        <mxCell id="Pgr-iC8UX_FUbl4EFKn4-64" value="" style="endArrow=none;dashed=1;html=1;dashPattern=1 3;strokeWidth=2;rounded=0;fontFamily=Times New Roman;fontSize=16;fontColor=default;entryX=0;entryY=0.5;entryDx=0;entryDy=0;exitX=1;exitY=0;exitDx=0;exitDy=0;" parent="Pgr-iC8UX_FUbl4EFKn4-109" source="Pgr-iC8UX_FUbl4EFKn4-50" target="Pgr-iC8UX_FUbl4EFKn4-33" edge="1">
          <mxGeometry width="50" height="50" relative="1" as="geometry">
            <mxPoint x="2000" y="490" as="sourcePoint" />
            <mxPoint x="2050" y="440" as="targetPoint" />
          </mxGeometry>
        </mxCell>
        <mxCell id="Pgr-iC8UX_FUbl4EFKn4-65" value="" style="endArrow=none;dashed=1;html=1;dashPattern=1 3;strokeWidth=2;rounded=0;fontFamily=Times New Roman;fontSize=16;fontColor=default;exitX=1;exitY=0;exitDx=0;exitDy=0;entryX=0;entryY=0.5;entryDx=0;entryDy=0;" parent="Pgr-iC8UX_FUbl4EFKn4-109" source="Pgr-iC8UX_FUbl4EFKn4-50" target="Pgr-iC8UX_FUbl4EFKn4-34" edge="1">
          <mxGeometry width="50" height="50" relative="1" as="geometry">
            <mxPoint x="2020" y="520" as="sourcePoint" />
            <mxPoint x="2070" y="470" as="targetPoint" />
          </mxGeometry>
        </mxCell>
        <mxCell id="Pgr-iC8UX_FUbl4EFKn4-68" value="" style="endArrow=classic;html=1;rounded=0;fontFamily=Times New Roman;fontSize=16;fontColor=default;exitX=1;exitY=0.5;exitDx=0;exitDy=0;" parent="Pgr-iC8UX_FUbl4EFKn4-109" source="Pgr-iC8UX_FUbl4EFKn4-47" target="Pgr-iC8UX_FUbl4EFKn4-77" edge="1">
          <mxGeometry width="50" height="50" relative="1" as="geometry">
            <mxPoint x="1840" y="980" as="sourcePoint" />
            <mxPoint x="2151" y="975" as="targetPoint" />
          </mxGeometry>
        </mxCell>
        <mxCell id="Pgr-iC8UX_FUbl4EFKn4-69" value="" style="endArrow=none;dashed=1;html=1;dashPattern=1 3;strokeWidth=2;rounded=0;fontFamily=Times New Roman;fontSize=16;fontColor=default;entryX=0;entryY=0.5;entryDx=0;entryDy=0;exitX=1;exitY=1;exitDx=0;exitDy=0;" parent="Pgr-iC8UX_FUbl4EFKn4-109" source="Pgr-iC8UX_FUbl4EFKn4-50" target="Pgr-iC8UX_FUbl4EFKn4-77" edge="1">
          <mxGeometry width="50" height="50" relative="1" as="geometry">
            <mxPoint x="1950" y="720" as="sourcePoint" />
            <mxPoint x="2151" y="975" as="targetPoint" />
          </mxGeometry>
        </mxCell>
        <mxCell id="Pgr-iC8UX_FUbl4EFKn4-71" value="" style="endArrow=none;dashed=1;html=1;dashPattern=1 3;strokeWidth=2;rounded=0;fontFamily=Times New Roman;fontSize=16;fontColor=default;" parent="Pgr-iC8UX_FUbl4EFKn4-109" source="Pgr-iC8UX_FUbl4EFKn4-50" target="Pgr-iC8UX_FUbl4EFKn4-76" edge="1">
          <mxGeometry width="50" height="50" relative="1" as="geometry">
            <mxPoint x="1957" y="727" as="sourcePoint" />
            <mxPoint x="2150" y="685" as="targetPoint" />
          </mxGeometry>
        </mxCell>
        <mxCell id="Pgr-iC8UX_FUbl4EFKn4-74" value="" style="group;fontSize=16;" parent="Pgr-iC8UX_FUbl4EFKn4-109" vertex="1" connectable="0">
          <mxGeometry x="2151" y="207.5" width="119" height="215" as="geometry" />
        </mxCell>
        <mxCell id="Pgr-iC8UX_FUbl4EFKn4-29" value="physics - Chain" style="rounded=0;whiteSpace=wrap;html=1;hachureGap=4;fontFamily=Times New Roman;fontSize=16;" parent="Pgr-iC8UX_FUbl4EFKn4-74" vertex="1">
          <mxGeometry y="65" width="119" height="30" as="geometry" />
        </mxCell>
        <mxCell id="Pgr-iC8UX_FUbl4EFKn4-32" value="math - Chain" style="rounded=0;whiteSpace=wrap;html=1;hachureGap=4;fontFamily=Times New Roman;fontSize=16;" parent="Pgr-iC8UX_FUbl4EFKn4-74" vertex="1">
          <mxGeometry y="105" width="119" height="30" as="geometry" />
        </mxCell>
        <mxCell id="Pgr-iC8UX_FUbl4EFKn4-33" value="joke - Chain" style="rounded=0;whiteSpace=wrap;html=1;hachureGap=4;fontFamily=Times New Roman;fontSize=16;" parent="Pgr-iC8UX_FUbl4EFKn4-74" vertex="1">
          <mxGeometry y="145" width="119" height="30" as="geometry" />
        </mxCell>
        <mxCell id="Pgr-iC8UX_FUbl4EFKn4-34" value="algorithm - Chain" style="rounded=0;whiteSpace=wrap;html=1;hachureGap=4;fontFamily=Times New Roman;fontSize=16;" parent="Pgr-iC8UX_FUbl4EFKn4-74" vertex="1">
          <mxGeometry y="185" width="119" height="30" as="geometry" />
        </mxCell>
        <mxCell id="Pgr-iC8UX_FUbl4EFKn4-39" value="destination_chains" style="text;html=1;strokeColor=none;fillColor=none;align=center;verticalAlign=middle;whiteSpace=wrap;rounded=0;fontSize=16;fontFamily=Times New Roman;" parent="Pgr-iC8UX_FUbl4EFKn4-74" vertex="1">
          <mxGeometry x="29.5" width="60" height="30" as="geometry" />
        </mxCell>
        <mxCell id="Pgr-iC8UX_FUbl4EFKn4-75" value="destination_str" style="text;html=1;strokeColor=none;fillColor=none;align=center;verticalAlign=middle;whiteSpace=wrap;rounded=0;fontSize=16;fontFamily=Tahoma;fontColor=default;" parent="Pgr-iC8UX_FUbl4EFKn4-109" vertex="1">
          <mxGeometry x="230" y="590" width="60" height="30" as="geometry" />
        </mxCell>
        <mxCell id="Pgr-iC8UX_FUbl4EFKn4-76" value="&lt;font face=&quot;Times New Roman&quot; style=&quot;font-size: 16px;&quot;&gt;default_chain&lt;/font&gt;" style="rounded=0;whiteSpace=wrap;html=1;hachureGap=4;strokeColor=default;fontFamily=Tahoma;fontSize=16;fontColor=default;fillColor=default;" parent="Pgr-iC8UX_FUbl4EFKn4-109" vertex="1">
          <mxGeometry x="2150" y="655" width="120" height="60" as="geometry" />
        </mxCell>
        <mxCell id="Pgr-iC8UX_FUbl4EFKn4-77" value="&lt;font face=&quot;Times New Roman&quot; style=&quot;font-size: 16px;&quot;&gt;route_chain&lt;/font&gt;" style="rounded=0;whiteSpace=wrap;html=1;hachureGap=4;strokeColor=default;fontFamily=Tahoma;fontSize=16;fontColor=default;fillColor=default;" parent="Pgr-iC8UX_FUbl4EFKn4-109" vertex="1">
          <mxGeometry x="2151" y="945" width="120" height="60" as="geometry" />
        </mxCell>
        <mxCell id="Pgr-iC8UX_FUbl4EFKn4-80" value="" style="shape=curlyBracket;whiteSpace=wrap;html=1;rounded=1;flipH=1;labelPosition=right;verticalLabelPosition=middle;align=left;verticalAlign=middle;hachureGap=4;strokeColor=default;fontFamily=Tahoma;fontSize=16;fontColor=default;fillColor=default;" parent="Pgr-iC8UX_FUbl4EFKn4-109" vertex="1">
          <mxGeometry x="2270" y="350" width="110" height="630" as="geometry" />
        </mxCell>
        <mxCell id="Pgr-iC8UX_FUbl4EFKn4-81" value="MultiPromptChain(MultiRouteChian)" style="shape=ext;double=1;rounded=1;whiteSpace=wrap;html=1;hachureGap=4;strokeColor=default;fontFamily=Times New Roman;fontSize=16;fontColor=default;fillColor=default;" parent="Pgr-iC8UX_FUbl4EFKn4-109" vertex="1">
          <mxGeometry x="2370" y="640" width="320" height="60" as="geometry" />
        </mxCell>
        <mxCell id="Pgr-iC8UX_FUbl4EFKn4-83" value="route" style="whiteSpace=wrap;html=1;fontSize=16;fontFamily=Times New Roman;rounded=1;hachureGap=4;" parent="Pgr-iC8UX_FUbl4EFKn4-109" vertex="1">
          <mxGeometry x="2540" y="496" width="120" height="60" as="geometry" />
        </mxCell>
        <mxCell id="Pgr-iC8UX_FUbl4EFKn4-84" value="" style="edgeStyle=orthogonalEdgeStyle;rounded=0;orthogonalLoop=1;jettySize=auto;html=1;fontFamily=Tahoma;fontSize=16;fontColor=default;" parent="Pgr-iC8UX_FUbl4EFKn4-109" source="Pgr-iC8UX_FUbl4EFKn4-81" target="Pgr-iC8UX_FUbl4EFKn4-83" edge="1">
          <mxGeometry relative="1" as="geometry" />
        </mxCell>
        <mxCell id="Pgr-iC8UX_FUbl4EFKn4-85" value="推理出答案&lt;br&gt;去这些提供的destination_chains中的哪一个？？&lt;br style=&quot;font-size: 16px;&quot;&gt;或者不存在其中？？" style="text;html=1;strokeColor=none;fillColor=none;align=center;verticalAlign=middle;whiteSpace=wrap;rounded=0;fontSize=16;fontFamily=Tahoma;fontColor=default;" parent="Pgr-iC8UX_FUbl4EFKn4-109" vertex="1">
          <mxGeometry x="2370" y="250" width="170" height="130" as="geometry" />
        </mxCell>
        <mxCell id="Pgr-iC8UX_FUbl4EFKn4-86" value="" style="endArrow=classic;html=1;rounded=0;fontFamily=Tahoma;fontSize=16;fontColor=default;exitX=0;exitY=0;exitDx=0;exitDy=0;entryX=0.5;entryY=1;entryDx=0;entryDy=0;" parent="Pgr-iC8UX_FUbl4EFKn4-109" source="Pgr-iC8UX_FUbl4EFKn4-83" target="Pgr-iC8UX_FUbl4EFKn4-85" edge="1">
          <mxGeometry width="50" height="50" relative="1" as="geometry">
            <mxPoint x="2430" y="470" as="sourcePoint" />
            <mxPoint x="2480" y="420" as="targetPoint" />
          </mxGeometry>
        </mxCell>
        <mxCell id="Pgr-iC8UX_FUbl4EFKn4-87" value="Actor" style="shape=umlActor;verticalLabelPosition=bottom;verticalAlign=top;html=1;rounded=1;hachureGap=4;strokeColor=default;fontFamily=Tahoma;fontSize=16;fontColor=default;fillColor=default;" parent="Pgr-iC8UX_FUbl4EFKn4-109" vertex="1">
          <mxGeometry x="3010" y="720" width="30" height="60" as="geometry" />
        </mxCell>
        <mxCell id="Pgr-iC8UX_FUbl4EFKn4-92" value="" style="edgeStyle=orthogonalEdgeStyle;rounded=0;orthogonalLoop=1;jettySize=auto;html=1;fontFamily=Tahoma;fontSize=16;fontColor=default;entryX=1;entryY=0.5;entryDx=0;entryDy=0;" parent="Pgr-iC8UX_FUbl4EFKn4-109" source="Pgr-iC8UX_FUbl4EFKn4-90" target="Pgr-iC8UX_FUbl4EFKn4-81" edge="1">
          <mxGeometry relative="1" as="geometry">
            <mxPoint x="3010" y="680" as="targetPoint" />
          </mxGeometry>
        </mxCell>
        <mxCell id="Pgr-iC8UX_FUbl4EFKn4-90" value="黑洞原理" style="ellipse;whiteSpace=wrap;rounded=1;hachureGap=4;strokeColor=default;fontFamily=Tahoma;fontSize=16;fontColor=default;fillColor=default;labelBorderColor=none;html=1;" parent="Pgr-iC8UX_FUbl4EFKn4-109" vertex="1">
          <mxGeometry x="2978" y="630" width="120" height="80" as="geometry" />
        </mxCell>
        <mxCell id="Pgr-iC8UX_FUbl4EFKn4-93" value="把问题补充到prompt中" style="text;html=1;align=center;verticalAlign=middle;resizable=0;points=[];autosize=1;strokeColor=none;fillColor=none;fontSize=16;fontFamily=Tahoma;fontColor=default;" parent="Pgr-iC8UX_FUbl4EFKn4-109" vertex="1">
          <mxGeometry x="2460" y="422.5" width="190" height="30" as="geometry" />
        </mxCell>
        <mxCell id="Pgr-iC8UX_FUbl4EFKn4-94" value="physics chain" style="whiteSpace=wrap;html=1;rounded=1;hachureGap=4;strokeColor=default;fontFamily=Tahoma;fontSize=16;fontColor=default;fillColor=default;" parent="Pgr-iC8UX_FUbl4EFKn4-109" vertex="1">
          <mxGeometry x="2860" y="180" width="120" height="60" as="geometry" />
        </mxCell>
        <mxCell id="Pgr-iC8UX_FUbl4EFKn4-98" value="把问题补充到 prompt中回答问题" style="whiteSpace=wrap;html=1;fontSize=16;fontFamily=Tahoma;rounded=1;hachureGap=4;" parent="Pgr-iC8UX_FUbl4EFKn4-109" vertex="1">
          <mxGeometry x="3060" y="180" width="120" height="60" as="geometry" />
        </mxCell>
        <mxCell id="Pgr-iC8UX_FUbl4EFKn4-99" value="" style="edgeStyle=orthogonalEdgeStyle;rounded=0;orthogonalLoop=1;jettySize=auto;html=1;fontFamily=Tahoma;fontSize=16;fontColor=default;" parent="Pgr-iC8UX_FUbl4EFKn4-109" source="Pgr-iC8UX_FUbl4EFKn4-94" target="Pgr-iC8UX_FUbl4EFKn4-98" edge="1">
          <mxGeometry relative="1" as="geometry" />
        </mxCell>
        <mxCell id="Pgr-iC8UX_FUbl4EFKn4-101" value="default chain" style="whiteSpace=wrap;html=1;rounded=1;hachureGap=4;strokeColor=default;fontFamily=Tahoma;fontSize=16;fontColor=default;fillColor=default;" parent="Pgr-iC8UX_FUbl4EFKn4-109" vertex="1">
          <mxGeometry x="2860" y="285" width="120" height="60" as="geometry" />
        </mxCell>
        <mxCell id="Pgr-iC8UX_FUbl4EFKn4-100" style="edgeStyle=orthogonalEdgeStyle;rounded=0;orthogonalLoop=1;jettySize=auto;html=1;exitX=1;exitY=0.5;exitDx=0;exitDy=0;fontFamily=Tahoma;fontSize=16;fontColor=default;entryX=0;entryY=0.5;entryDx=0;entryDy=0;" parent="Pgr-iC8UX_FUbl4EFKn4-109" source="Pgr-iC8UX_FUbl4EFKn4-85" target="Pgr-iC8UX_FUbl4EFKn4-101" edge="1">
          <mxGeometry relative="1" as="geometry">
            <mxPoint x="2860" y="340" as="targetPoint" />
          </mxGeometry>
        </mxCell>
        <mxCell id="Pgr-iC8UX_FUbl4EFKn4-102" value="回答问题" style="whiteSpace=wrap;html=1;fontSize=16;fontFamily=Tahoma;rounded=1;hachureGap=4;" parent="Pgr-iC8UX_FUbl4EFKn4-109" vertex="1">
          <mxGeometry x="3080" y="285" width="120" height="60" as="geometry" />
        </mxCell>
        <mxCell id="Pgr-iC8UX_FUbl4EFKn4-104" value="不存在？报错... or default_chain" style="whiteSpace=wrap;html=1;rounded=1;hachureGap=4;strokeColor=default;fontFamily=Tahoma;fontSize=16;fontColor=default;fillColor=default;" parent="Pgr-iC8UX_FUbl4EFKn4-109" vertex="1">
          <mxGeometry x="2860" y="400" width="314" height="60" as="geometry" />
        </mxCell>
        <mxCell id="Pgr-iC8UX_FUbl4EFKn4-105" value="" style="endArrow=classic;html=1;rounded=0;fontFamily=Tahoma;fontSize=16;fontColor=default;entryX=0;entryY=0.5;entryDx=0;entryDy=0;exitX=1;exitY=0.5;exitDx=0;exitDy=0;" parent="Pgr-iC8UX_FUbl4EFKn4-109" source="Pgr-iC8UX_FUbl4EFKn4-85" target="Pgr-iC8UX_FUbl4EFKn4-104" edge="1">
          <mxGeometry width="50" height="50" relative="1" as="geometry">
            <mxPoint x="2650" y="410" as="sourcePoint" />
            <mxPoint x="2700" y="360" as="targetPoint" />
          </mxGeometry>
        </mxCell>
        <mxCell id="Pgr-iC8UX_FUbl4EFKn4-103" value="" style="edgeStyle=orthogonalEdgeStyle;rounded=0;orthogonalLoop=1;jettySize=auto;html=1;fontFamily=Tahoma;fontSize=16;fontColor=default;" parent="Pgr-iC8UX_FUbl4EFKn4-109" source="Pgr-iC8UX_FUbl4EFKn4-101" target="Pgr-iC8UX_FUbl4EFKn4-102" edge="1">
          <mxGeometry relative="1" as="geometry" />
        </mxCell>
        <mxCell id="Pgr-iC8UX_FUbl4EFKn4-106" value="" style="endArrow=classic;html=1;rounded=0;fontFamily=Tahoma;fontSize=14;fontColor=default;entryX=0;entryY=0.5;entryDx=0;entryDy=0;exitX=1;exitY=0.5;exitDx=0;exitDy=0;" parent="Pgr-iC8UX_FUbl4EFKn4-109" source="Pgr-iC8UX_FUbl4EFKn4-85" target="Pgr-iC8UX_FUbl4EFKn4-94" edge="1">
          <mxGeometry width="50" height="50" relative="1" as="geometry">
            <mxPoint x="2540" y="340" as="sourcePoint" />
            <mxPoint x="2590" y="290" as="targetPoint" />
          </mxGeometry>
        </mxCell>
        <mxCell id="Pgr-iC8UX_FUbl4EFKn4-107" value="" style="endArrow=classic;html=1;rounded=0;fontFamily=Tahoma;fontSize=14;fontColor=default;exitX=0;exitY=0.5;exitDx=0;exitDy=0;" parent="Pgr-iC8UX_FUbl4EFKn4-109" source="Pgr-iC8UX_FUbl4EFKn4-85" edge="1">
          <mxGeometry width="50" height="50" relative="1" as="geometry">
            <mxPoint x="2370" y="290" as="sourcePoint" />
            <mxPoint x="2280" y="320" as="targetPoint" />
          </mxGeometry>
        </mxCell>
      </root>
    </mxGraphModel>
  </diagram>
</mxfile>
